<svg width="127" height="32" viewBox="0 0 127 32" fill="none" xmlns="http://www.w3.org/2000/svg">
<path fill-rule="evenodd" clip-rule="evenodd" d="M48.7149 9.27112L47.6523 8.47422L48.1137 7.98574C48.0832 7.20078 48.444 6.26636 49.1314 5.49153C49.8851 4.64198 50.8764 4.15949 51.7106 4.17721L52.1681 3.69283L52.965 4.75536L52.9507 4.77058C53.5686 5.59071 53.3228 7.06917 52.2606 8.26687C51.1345 9.53547 49.5868 9.93111 48.7187 9.26706L48.7149 9.27112Z" fill="url(#paint0_linear_36497_242663)"/>
<path d="M51.5332 7.52211C52.7405 6.16134 52.9769 4.39963 52.0612 3.58724C51.1456 2.77484 49.4246 3.21939 48.2173 4.58016C47.01 5.94093 46.7735 7.70264 47.6892 8.51504C48.6049 9.32744 50.3259 8.88289 51.5332 7.52211Z" fill="url(#paint1_linear_36497_242663)"/>
<path d="M51.5532 7.53712C52.7531 6.18468 52.976 4.42311 52.0511 3.60253C51.1263 2.78196 49.4038 3.21311 48.2039 4.56554C47.004 5.91798 46.781 7.67955 47.7059 8.50013C48.6308 9.32071 50.3533 8.88955 51.5532 7.53712Z" fill="#0052FE"/>
<path d="M12.608 15.9605L24.3724 3.35566H18.1162L5.62186 16.4801V3.35566H0V29.4536H5.62186V23.3005L8.90615 19.8919L16.7296 29.4536H23.3311L13.4039 16.9625L12.608 15.9594V15.9605Z" fill="#0052FE"/>
<path d="M42.5032 14.9543C40.7543 12.18 37.5454 10.464 33.6332 10.464C29.4521 10.464 26.0573 12.4255 24.4019 15.5334C23.6868 16.8647 23.2969 18.4107 23.2969 20.0991C23.2969 25.7326 27.6596 29.7341 33.6332 29.7341C39.6068 29.7341 43.9366 25.7326 43.9366 20.0991C43.9366 18.1578 43.4213 16.4089 42.5032 14.9543ZM33.6332 25.2811C30.9089 25.2811 28.8125 23.3334 28.8125 20.0991C28.8125 17.3174 30.3595 15.4877 32.526 15.0308C32.8799 14.9532 33.2507 14.915 33.6332 14.915C33.902 14.915 34.1602 14.932 34.4142 14.9734C36.74 15.3092 38.4178 17.1803 38.4178 20.0991C38.4178 23.3334 36.3586 25.2811 33.6343 25.2811H33.6332Z" fill="#0052FE"/>
<path d="M53.014 10.7422H47.5664V29.4545H53.014V10.7422Z" fill="#0052FE"/>
<path d="M69.5021 10.464C66.9521 10.464 64.7515 11.3353 63.2853 12.9334V10.7424H58.082V29.4547H63.5286V20.2021C63.5286 18.8421 63.8218 17.77 64.3435 16.9742C65.1341 15.7469 66.4516 15.1615 68.0358 15.1615C70.1768 15.1615 71.5178 16.2591 71.7898 18.6232C71.8248 18.9186 71.8418 19.2395 71.8418 19.5774V29.4536H74.8424L77.2926 26.0514V18.7443C77.2926 13.0375 73.9382 10.464 69.5021 10.464Z" fill="#0052FE"/>
<path d="M105.609 3.26653L78.8828 29.4548H87.2014L89.6431 25.9835L103.472 6.30749L105.609 3.26653Z" fill="url(#paint2_linear_36497_242663)"/>
<path d="M97.7311 3.26653L96.8768 4.45444L83.4645 23.087L78.8828 29.4548L105.609 3.26653H97.7311Z" fill="url(#paint3_linear_36497_242663)"/>
<path d="M102.964 24.8815L102.618 24.3928C102.33 23.9848 101.862 23.7425 101.365 23.7425H95.0775C94.8448 23.7425 94.6642 23.8806 94.5781 24.0644L106.199 29.4547L102.964 24.8815Z" fill="#F69300"/>
<path d="M94.5773 24.0647C94.5008 24.2283 94.4997 24.4281 94.6134 24.6023L95.9044 26.5669H95.9076L97.8063 29.4549H106.199L94.5784 24.0647H94.5773Z" fill="url(#paint4_linear_36497_242663)"/>
<path d="M90.7977 8.11377L88.8076 5.19181L87.4964 3.26756H79.2852L90.6691 8.86817C90.8923 8.70136 90.9762 8.37622 90.7988 8.11377H90.7977Z" fill="url(#paint5_linear_36497_242663)"/>
<path d="M79.2852 3.26656L82.7883 8.31677C82.8032 8.33696 82.817 8.35396 82.8319 8.37415C83.122 8.75348 83.5714 8.97767 84.0517 8.97767H90.3419C90.4704 8.97767 90.5799 8.93305 90.6702 8.86611L79.2862 3.2655L79.2852 3.26656Z" fill="#F69300"/>
<path d="M115.925 8.97657V4.10614H118.261C118.507 4.10614 118.745 4.16553 118.974 4.28433C119.207 4.39872 119.398 4.5703 119.548 4.79909C119.702 5.02347 119.779 5.30065 119.779 5.63062C119.779 5.9606 119.7 6.24658 119.541 6.48856C119.387 6.72614 119.189 6.90873 118.947 7.03632C118.71 7.16391 118.463 7.2277 118.208 7.2277H116.4V6.56115H117.984C118.208 6.56115 118.408 6.48196 118.584 6.32357C118.765 6.16078 118.855 5.9298 118.855 5.63062C118.855 5.32265 118.765 5.10266 118.584 4.97067C118.408 4.83868 118.215 4.77269 118.004 4.77269H116.776V8.97657H115.925ZM118.763 6.71294L119.977 8.97657H119.026L117.845 6.71294H118.763ZM117.713 11.8804C116.983 11.8804 116.299 11.744 115.661 11.4712C115.023 11.1984 114.462 10.82 113.978 10.3361C113.494 9.85211 113.116 9.29115 112.843 8.6532C112.57 8.01524 112.434 7.3311 112.434 6.60075C112.434 5.87041 112.57 5.18626 112.843 4.5483C113.116 3.91035 113.494 3.3494 113.978 2.86543C114.462 2.38147 115.023 2.0031 115.661 1.73032C116.299 1.45754 116.983 1.32115 117.713 1.32115C118.444 1.32115 119.128 1.45754 119.766 1.73032C120.404 2.0031 120.965 2.38147 121.449 2.86543C121.932 3.3494 122.311 3.91035 122.584 4.5483C122.856 5.18626 122.993 5.87041 122.993 6.60075C122.993 7.3311 122.856 8.01524 122.584 8.6532C122.311 9.29115 121.932 9.85211 121.449 10.3361C120.965 10.82 120.404 11.1984 119.766 11.4712C119.128 11.744 118.444 11.8804 117.713 11.8804ZM117.713 10.897C118.505 10.897 119.224 10.7034 119.871 10.3163C120.522 9.9291 121.042 9.41214 121.429 8.76539C121.816 8.11424 122.009 7.39269 122.009 6.60075C122.009 5.80881 121.816 5.08946 121.429 4.44271C121.042 3.79156 120.522 3.2724 119.871 2.88523C119.224 2.49806 118.505 2.30447 117.713 2.30447C116.921 2.30447 116.2 2.49806 115.549 2.88523C114.902 3.2724 114.385 3.79156 113.998 4.44271C113.611 5.08946 113.417 5.80881 113.417 6.60075C113.417 7.39269 113.611 8.11424 113.998 8.76539C114.385 9.41214 114.902 9.9291 115.549 10.3163C116.2 10.7034 116.921 10.897 117.713 10.897Z" fill="#CBD5E1"/>
<defs>
<linearGradient id="paint0_linear_36497_242663" x1="53.0979" y1="5.02102" x2="49.1133" y2="9.66965" gradientUnits="userSpaceOnUse">
<stop stop-color="#3372F5"/>
<stop offset="0.249995" stop-color="#3372F5"/>
<stop offset="0.505208" stop-color="#80DBFB"/>
<stop offset="0.838547" stop-color="#3372F5"/>
<stop offset="1" stop-color="#3372F5"/>
</linearGradient>
<linearGradient id="paint1_linear_36497_242663" x1="58.9965" y1="5.00562" x2="57.9306" y2="6.20553" gradientUnits="userSpaceOnUse">
<stop stop-color="#0080D4"/>
<stop offset="0.47" stop-color="white"/>
<stop offset="0.6" stop-color="#F1F8FC"/>
<stop offset="1" stop-color="#007DCC"/>
</linearGradient>
<linearGradient id="paint2_linear_36497_242663" x1="99.6043" y1="10.2941" x2="89.2499" y2="22.2731" gradientUnits="userSpaceOnUse">
<stop stop-color="#FFAC00"/>
<stop offset="1" stop-color="#FE7801"/>
</linearGradient>
<linearGradient id="paint3_linear_36497_242663" x1="78.8828" y1="16.3612" x2="105.609" y2="16.3612" gradientUnits="userSpaceOnUse">
<stop stop-color="#FFCE00"/>
<stop offset="1" stop-color="#FFB003"/>
</linearGradient>
<linearGradient id="paint4_linear_36497_242663" x1="94.5231" y1="26.7603" x2="106.198" y2="26.7603" gradientUnits="userSpaceOnUse">
<stop stop-color="#FE8B01"/>
<stop offset="1" stop-color="#FE7801"/>
</linearGradient>
<linearGradient id="paint5_linear_36497_242663" x1="79.2841" y1="6.06734" x2="90.8944" y2="6.06734" gradientUnits="userSpaceOnUse">
<stop stop-color="#FFCE00"/>
<stop offset="1" stop-color="#FFC101"/>
</linearGradient>
</defs>
</svg>
